<svg width="823" height="142" viewBox="0 0 823 142" fill="none" xmlns="http://www.w3.org/2000/svg">
<path d="M124.331 45.6493C124.377 48.52 123.571 51.3398 122.014 53.7523C120.458 56.1647 118.221 58.0615 115.586 59.2026C112.952 60.3437 110.038 60.678 107.214 60.1632C104.389 59.6484 101.781 58.3075 99.7185 56.3103C97.6561 54.313 96.2322 51.749 95.627 48.9425C95.0218 46.136 95.2624 43.2131 96.3183 40.5434C97.3743 37.8736 99.1982 35.5769 101.559 33.9438C103.921 32.3107 106.713 31.4144 109.584 31.3683C111.49 31.3376 113.383 31.6827 115.156 32.3838C116.929 33.0848 118.546 34.1282 119.915 35.4544C121.285 36.7805 122.379 38.3634 123.137 40.1127C123.895 41.8619 124.3 43.7433 124.331 45.6493V45.6493Z" fill="#FCE4AB"/>
<path d="M43.8528 39.0194C43.9099 42.5527 42.9179 46.0237 41.0023 48.9932C39.0867 51.9628 36.3336 54.2977 33.091 55.7025C29.8484 57.1074 26.2621 57.5191 22.7855 56.8857C19.3089 56.2523 16.0982 54.6021 13.5595 52.1439C11.0208 49.6857 9.26799 46.5299 8.52283 43.0756C7.77766 39.6212 8.07364 36.0235 9.37323 32.7373C10.6728 29.4511 12.9177 26.6241 15.824 24.6138C18.7303 22.6035 22.1674 21.5002 25.7008 21.4434C30.4386 21.3672 35.0126 23.1761 38.4167 26.4722C41.8208 29.7683 43.7762 34.2816 43.8528 39.0194Z" fill="#FCE4AB"/>
<path d="M105.831 17.5783C105.888 21.1116 104.896 24.5824 102.981 27.552C101.065 30.5215 98.3124 32.8563 95.07 34.2612C91.8275 35.6661 88.2413 36.078 84.7648 35.4447C81.2883 34.8115 78.0776 33.1615 75.5388 30.7035C73 28.2456 71.247 25.0899 70.5016 21.6357C69.7562 18.1815 70.0519 14.5838 71.3512 11.2976C72.6504 8.01142 74.895 5.18429 77.8011 3.17375C80.7071 1.1632 84.144 0.0595378 87.6773 0.00231378C92.4152 -0.0738908 96.9895 1.73494 100.394 5.03098C103.798 8.32703 105.754 12.8404 105.831 17.5783V17.5783Z" fill="#FCE4AB"/>
<path d="M85.4773 22.9333C85.5495 27.3943 84.2972 31.7766 81.8788 35.5259C79.4603 39.2753 75.9844 42.2232 71.8905 43.997C67.7967 45.7708 63.2686 46.2907 58.8792 45.4911C54.4898 44.6914 50.4362 42.6081 47.2308 39.5046C44.0255 36.401 41.8124 32.4167 40.8716 28.0554C39.9307 23.6941 40.3042 19.1517 41.945 15.0027C43.5857 10.8537 46.42 7.28445 50.0893 4.74629C53.7587 2.20812 58.0982 0.815051 62.5593 0.743264C68.5408 0.647275 74.3156 2.93109 78.6134 7.0924C82.9113 11.2537 85.3803 16.9518 85.4773 22.9333V22.9333Z" fill="#FACD7B"/>
<path d="M119.793 31.7604C119.858 35.7575 118.736 39.684 116.569 43.0434C114.402 46.4028 111.288 49.0443 107.62 50.6336C103.952 52.223 99.8948 52.6889 95.9619 51.9725C92.029 51.2561 88.3968 49.3895 85.5248 46.6088C82.6528 43.8281 80.6698 40.2581 79.8267 36.3504C78.9836 32.4427 79.3182 28.3727 80.7883 24.6552C82.2583 20.9377 84.7977 17.7396 88.0854 15.4653C91.3731 13.191 95.2613 11.9428 99.2584 11.8784C104.618 11.792 109.792 13.8381 113.643 17.5667C117.494 21.2952 119.707 26.4008 119.793 31.7604V31.7604Z" fill="#F9B968"/>
<path d="M93.4785 41.2313C93.5284 44.3012 92.6667 47.3169 91.0026 49.8971C89.3384 52.4773 86.9465 54.506 84.1293 55.7267C81.3121 56.9474 78.1962 57.3053 75.1757 56.755C72.1551 56.2048 69.3655 54.7712 67.1597 52.6355C64.954 50.4998 63.4311 47.7579 62.7836 44.7567C62.1362 41.7554 62.3933 38.6296 63.5225 35.7745C64.6516 32.9194 66.6021 30.4632 69.1272 28.7167C71.6523 26.9701 74.6386 26.0116 77.7085 25.9623C81.8244 25.8963 85.7981 27.4678 88.7554 30.3312C91.7128 33.1946 93.4117 37.1154 93.4785 41.2313V41.2313Z" fill="#EA8542"/>
<path d="M23.2651 50.4053C23.3016 52.6793 22.663 54.9131 21.43 56.8242C20.197 58.7353 18.4251 60.2379 16.3382 61.142C14.2513 62.0461 11.9432 62.3111 9.70571 61.9036C7.46821 61.496 5.40183 60.4341 3.76778 58.8522C2.13374 57.2703 1.00544 55.2394 0.525534 53.0163C0.0456305 50.7932 0.235704 48.4778 1.07168 46.3627C1.90765 44.2476 3.35195 42.4278 5.22207 41.1335C7.09218 39.8393 9.30408 39.1286 11.5781 39.0913C14.6278 39.0431 17.5719 40.2078 19.7634 42.3293C21.9548 44.4508 23.2143 47.3556 23.2651 50.4053V50.4053Z" fill="#EA8542"/>
<path d="M73.0664 42.9003C73.1164 45.97 72.255 48.9855 70.5912 51.5656C68.9274 54.1457 66.5357 56.1744 63.7189 57.3953C60.902 58.6161 57.7864 58.9742 54.766 58.4243C51.7456 57.8743 48.9561 56.4411 46.7503 54.3058C44.5445 52.1705 43.0215 49.429 42.3738 46.4281C41.7261 43.4271 41.9828 40.3015 43.1116 37.4465C44.2403 34.5915 46.1903 32.1353 48.715 30.3886C51.2397 28.6418 54.2257 27.683 57.2954 27.6333C61.411 27.5673 65.3844 29.1385 68.3419 32.0015C71.2993 34.8644 72.9987 38.7847 73.0664 42.9003V42.9003Z" fill="#FCE4AB"/>
<path d="M52.0008 45.5863C52.0473 48.4571 51.2415 51.2772 49.6852 53.69C48.1289 56.1029 45.8921 58 43.2576 59.1416C40.6231 60.2832 37.7092 60.6179 34.8845 60.1034C32.0598 59.5889 29.451 58.2484 27.3882 56.2512C25.3253 54.2541 23.9011 51.6902 23.2954 48.8836C22.6897 46.077 22.93 43.1538 23.9856 40.4837C25.0413 37.8137 26.8651 35.5166 29.2262 33.883C31.5874 32.2494 34.38 31.3527 37.2508 31.3063C39.157 31.2751 41.0507 31.6198 42.8237 32.3207C44.5966 33.0215 46.2141 34.0648 47.5839 35.3909C48.9536 36.7169 50.0486 38.2998 50.8065 40.0492C51.5644 41.7985 51.9702 43.68 52.0008 45.5863V45.5863Z" fill="#F9B968"/>
<path d="M6.0459 61.0123L21.6459 133.707L105.882 132.348L119.131 59.1884L6.0459 61.0123Z" fill="#F39014"/>
<path d="M28.5312 60.6493L38.3313 133.437L55.1743 133.165L51.1313 60.2843L28.5312 60.6493Z" fill="#E5EFF3"/>
<path d="M6.0459 61.0123L21.6459 133.707L38.3359 133.437L28.5359 60.6493L6.0459 61.0123Z" fill="#ED4D55"/>
<path d="M119.131 59.1884L96.3152 59.5553L88.8662 132.619L105.883 132.345L119.131 59.1884Z" fill="#ED4D55"/>
<path d="M51.1309 60.2843L55.1818 133.165L72.0248 132.893L73.7249 59.9193L51.1309 60.2843Z" fill="#ED4D55"/>
<path d="M73.7195 59.9193L72.0195 132.893L88.8635 132.622L96.3096 59.5563L73.7195 59.9193Z" fill="#E5EFF3"/>
<path opacity="0.4" d="M12.8639 92.7803C33.1309 82.7923 68.4749 70.2473 116.995 70.9803L119.128 59.1923L6.0459 61.0163L12.8639 92.7803Z" fill="#C52C58"/>
<path d="M125.116 58.1683C125.146 60.0046 124.445 61.7776 123.167 63.0971C121.89 64.4166 120.14 65.1745 118.304 65.2043L7.06591 66.9983C5.22973 67.028 3.45691 66.3271 2.13744 65.0498C0.81797 63.7725 0.0598888 62.0235 0.0298974 60.1873L0.000905669 58.3403C-0.028775 56.5041 0.672115 54.7313 1.94939 53.4118C3.22667 52.0924 4.9757 51.3343 6.81188 51.3043L118.05 49.5113C119.886 49.4816 121.659 50.1825 122.978 51.4598C124.298 52.737 125.056 54.4861 125.086 56.3223L125.116 58.1683Z" fill="#ED4D55"/>
<path opacity="0.4" d="M110.466 107.03C83.033 123.099 31.812 125.343 19.915 125.648L21.6461 133.707L105.882 132.347L110.466 107.03Z" fill="#C52C58"/>
<path d="M110.166 133.203C110.229 137.026 107.979 140.165 105.144 140.209L22.6366 141.541C19.8026 141.586 17.4526 138.524 17.3916 134.7L17.3616 132.853C17.2986 129.03 19.5496 125.892 22.3846 125.847L104.891 124.519C107.727 124.473 110.075 127.535 110.137 131.36L110.166 133.203Z" fill="#ED4D55"/>
<path d="M178.89 109.2C173.423 109.2 168.323 108.3 163.59 106.5C158.923 104.633 154.823 102.033 151.29 98.7C147.757 95.3667 144.99 91.4667 142.99 87C141.057 82.4667 140.09 77.5667 140.09 72.3C140.09 66.9667 141.057 62.0667 142.99 57.6C144.99 53.1333 147.723 49.2667 151.19 46C154.723 42.7333 158.823 40.2 163.49 38.4C168.157 36.5333 173.223 35.6 178.69 35.6C184.223 35.6 189.29 36.4667 193.89 38.2C198.49 39.9333 202.49 42.3333 205.89 45.4L192.59 58.8C190.99 57.0667 189.023 55.7 186.69 54.7C184.423 53.7 181.757 53.2 178.69 53.2C176.023 53.2 173.557 53.6333 171.29 54.5C169.09 55.3667 167.19 56.6333 165.59 58.3C163.99 59.9667 162.723 62 161.79 64.4C160.923 66.7333 160.49 69.3667 160.49 72.3C160.49 75.3 160.923 78 161.79 80.4C162.723 82.7333 163.99 84.7333 165.59 86.4C167.19 88.0667 169.09 89.3667 171.29 90.3C173.557 91.1667 176.023 91.6 178.69 91.6C181.69 91.6 184.357 91.1333 186.69 90.2C189.09 89.2667 191.157 87.9 192.89 86.1L206.29 99.5C202.757 102.567 198.79 104.967 194.39 106.7C189.99 108.367 184.823 109.2 178.89 109.2ZM213.221 108V36.8H233.221V108H213.221ZM245.057 108V36.8H259.057L265.057 51.8V108H245.057ZM294.057 108L252.757 56.1L259.057 36.8L300.357 88.7L294.057 108ZM294.057 108L289.057 92.2V36.8H309.057V108H294.057ZM320.838 108V36.8H340.838V108H320.838ZM337.038 108V91.4H375.238V108H337.038ZM337.038 79.8V63.6H371.538V79.8H337.038ZM337.038 53.4V36.8H374.638V53.4H337.038ZM384.706 108V36.8H399.206L425.706 75.6H419.406L445.806 36.8H460.306V108H440.506V69.6L443.406 70.4L428.906 91.2H416.106L401.706 70.4L404.506 69.6V108H384.706ZM466.808 108L493.908 36.8H514.308L541.108 108H520.308L500.408 47.5H507.608L487.208 108H466.808ZM484.408 96V80.4H524.208V96H484.408ZM557.196 109.2C554.063 109.2 551.463 108.133 549.396 106C547.33 103.867 546.296 101.267 546.296 98.2C546.296 95.0667 547.33 92.4333 549.396 90.3C551.463 88.1667 554.063 87.1 557.196 87.1C560.33 87.1 562.896 88.1667 564.896 90.3C566.963 92.4333 567.996 95.0667 567.996 98.2C567.996 101.267 566.963 103.867 564.896 106C562.896 108.133 560.33 109.2 557.196 109.2ZM610.628 109.2C605.162 109.2 600.062 108.3 595.328 106.5C590.662 104.633 586.562 102.033 583.028 98.7C579.495 95.3667 576.728 91.4667 574.728 87C572.795 82.4667 571.828 77.5667 571.828 72.3C571.828 66.9667 572.795 62.0667 574.728 57.6C576.728 53.1333 579.462 49.2667 582.928 46C586.462 42.7333 590.562 40.2 595.228 38.4C599.895 36.5333 604.962 35.6 610.428 35.6C615.962 35.6 621.028 36.4667 625.628 38.2C630.228 39.9333 634.228 42.3333 637.628 45.4L624.328 58.8C622.728 57.0667 620.762 55.7 618.428 54.7C616.162 53.7 613.495 53.2 610.428 53.2C607.762 53.2 605.295 53.6333 603.028 54.5C600.828 55.3667 598.928 56.6333 597.328 58.3C595.728 59.9667 594.462 62 593.528 64.4C592.662 66.7333 592.228 69.3667 592.228 72.3C592.228 75.3 592.662 78 593.528 80.4C594.462 82.7333 595.728 84.7333 597.328 86.4C598.928 88.0667 600.828 89.3667 603.028 90.3C605.295 91.1667 607.762 91.6 610.428 91.6C613.428 91.6 616.095 91.1333 618.428 90.2C620.828 89.2667 622.895 87.9 624.628 86.1L638.028 99.5C634.495 102.567 630.528 104.967 626.128 106.7C621.728 108.367 616.562 109.2 610.628 109.2ZM716.835 108V36.8H731.335L757.835 75.6H751.535L777.935 36.8H792.435V108H772.635V69.6L775.535 70.4L761.035 91.2H748.235L733.835 70.4L736.635 69.6V108H716.835Z" fill="#E30B13"/>
<path d="M674 32C652.433 32 635 49.6239 635 71.3809C635 93.1254 652.42 110.762 674 110.762C695.567 110.762 713 93.1379 713 71.3809C713 49.6357 695.579 32 674 32ZM663.888 68.9473C663.576 70.2753 662.223 71.0817 660.909 70.7251L645 66.4174C643.73 66.0749 642.969 64.7763 643.291 63.5016C646.102 52.3432 654.684 43.5348 665.688 40.5112C666.979 40.1566 668.313 40.9238 668.659 42.2183L672.918 58.2921C673.257 59.5668 672.507 60.8768 671.237 61.232C667.578 62.2525 664.762 65.2085 663.888 68.9473ZM668.512 71.3809C668.512 68.3236 670.973 65.8354 674 65.8354C677.027 65.8354 679.488 68.3236 679.488 71.3809C679.488 74.4381 677.027 76.9264 674 76.9264C670.973 76.9264 668.512 74.4381 668.512 71.3809ZM682.103 102.307C680.817 102.651 679.491 101.882 679.15 100.595L674.887 84.5244C674.545 83.2333 675.317 81.9147 676.605 81.5733C680.102 80.6571 682.918 77.9117 683.956 74.4075C684.329 73.1521 685.634 72.424 686.898 72.7648L702.806 77.0727C704.096 77.4203 704.86 78.7593 704.499 80.0479C701.473 90.8946 692.892 99.4233 682.103 102.307Z" fill="#E30B13"/>
</svg>
